<svg width="23" height="23" viewBox="0 0 23 23" fill="none" xmlns="http://www.w3.org/2000/svg">
<path d="M19.7558 12.23V15.0523C19.7558 16.0503 19.3593 17.0074 18.6536 17.7132C17.9479 18.4189 16.9907 18.8153 15.9927 18.8153H6.58508C5.58705 18.8153 4.6299 18.4189 3.92419 17.7132C3.21849 17.0074 2.82202 16.0503 2.82202 15.0523V12.7944C2.82202 12.6447 2.88149 12.5012 2.98735 12.3953C3.0932 12.2894 3.23678 12.23 3.38648 12.23H19.7558Z" fill="black" stroke="black" stroke-width="1.41115" stroke-linecap="round" stroke-linejoin="round"/>
<path d="M15.0523 18.8153L15.9931 20.6968M7.52621 18.8153L6.58545 20.6968M19.7561 12.2299V6.58532C19.7561 5.5873 19.3597 4.63015 18.654 3.92444C17.9483 3.21873 16.9911 2.82227 15.9931 2.82227H11.2893" stroke="black" stroke-width="1.41115" stroke-linecap="round" stroke-linejoin="round"/>
<path d="M14.4894 7.52609H8.09217C7.78078 7.52609 7.53148 7.27396 7.56534 6.96351C7.70269 5.71512 8.33959 2.82227 11.2908 2.82227C14.2419 2.82227 14.8788 5.71512 15.0162 6.96351C15.0501 7.27396 14.8008 7.52609 14.4894 7.52609Z" fill="black" stroke="black" stroke-width="1.41115" stroke-linecap="round" stroke-linejoin="round"/>
</svg>
