<svg width="21" height="21" viewBox="0 0 21 21" fill="none" xmlns="http://www.w3.org/2000/svg">
<path d="M1.67261 15.8889V10.8715C1.67261 10.4952 1.74926 10.1537 1.90257 9.84713C2.05588 9.54051 2.25797 9.26873 2.50884 9.0318V6.69034C2.50884 5.99348 2.75274 5.40115 3.24055 4.91335C3.72835 4.42554 4.32068 4.18164 5.01755 4.18164H8.36248C8.68304 4.18164 8.98269 4.24101 9.26144 4.35976C9.54018 4.4785 9.79802 4.64213 10.035 4.85063C10.2719 4.64157 10.5297 4.47795 10.8085 4.35976C11.0872 4.24157 11.3869 4.1822 11.7074 4.18164H15.0524C15.7492 4.18164 16.3416 4.42554 16.8294 4.91335C17.3172 5.40115 17.5611 5.99348 17.5611 6.69034V9.0318C17.8119 9.26873 18.014 9.54051 18.1673 9.84713C18.3206 10.1537 18.3973 10.4952 18.3973 10.8715V15.8889H16.7248V14.2165H3.34508V15.8889H1.67261ZM10.8712 8.36281H15.8886V6.69034C15.8886 6.45341 15.8083 6.25495 15.6478 6.09495C15.4872 5.93495 15.2887 5.85467 15.0524 5.85411H11.7074C11.4705 5.85411 11.272 5.93439 11.112 6.09495C10.952 6.2555 10.8717 6.45397 10.8712 6.69034V8.36281ZM4.18131 8.36281H9.19872V6.69034C9.19872 6.45341 9.11844 6.25495 8.95788 6.09495C8.79733 5.93495 8.59886 5.85467 8.36248 5.85411H5.01755C4.78061 5.85411 4.58215 5.93439 4.42215 6.09495C4.26215 6.2555 4.18187 6.45397 4.18131 6.69034V8.36281Z" fill="black"/>
</svg>
