<svg width="12" height="16" viewBox="0 0 12 16" fill="none" xmlns="http://www.w3.org/2000/svg">
<path d="M5.5559 7.28881C5.02964 7.28881 4.52494 7.08673 4.15282 6.72701C3.7807 6.3673 3.57165 5.87942 3.57165 5.3707C3.57165 4.86199 3.7807 4.37411 4.15282 4.0144C4.52494 3.65468 5.02964 3.4526 5.5559 3.4526C6.08216 3.4526 6.58686 3.65468 6.95898 4.0144C7.33109 4.37411 7.54015 4.86199 7.54015 5.3707C7.54015 5.62259 7.48883 5.87202 7.38911 6.10473C7.28939 6.33745 7.14323 6.5489 6.95898 6.72701C6.77472 6.90512 6.55598 7.04641 6.31524 7.14281C6.0745 7.2392 5.81647 7.28881 5.5559 7.28881ZM5.5559 0C4.08238 0 2.66922 0.56584 1.62729 1.57304C0.585352 2.58025 0 3.9463 0 5.3707C0 9.39873 5.5559 15.3449 5.5559 15.3449C5.5559 15.3449 11.1118 9.39873 11.1118 5.3707C11.1118 3.9463 10.5264 2.58025 9.48451 1.57304C8.44258 0.56584 7.02942 0 5.5559 0Z" fill="black"/>
</svg>
