<svg width="19" height="15" viewBox="0 0 19 15" fill="none" xmlns="http://www.w3.org/2000/svg">
<path d="M10.3802 0.38999C10.63 0.140279 10.9688 0 11.322 0C11.6752 0 12.0139 0.140279 12.2637 0.38999L18.2577 6.38397C18.5074 6.63375 18.6476 6.97249 18.6476 7.32569C18.6476 7.67888 18.5074 8.01762 18.2577 8.26741L12.2637 14.2614C12.0125 14.504 11.676 14.6383 11.3267 14.6352C10.9775 14.6322 10.6434 14.4921 10.3965 14.2452C10.1495 13.9982 10.0094 13.6641 10.0064 13.3149C10.0033 12.9656 10.1376 12.6292 10.3802 12.3779L13.9859 8.65768H1.33199C0.978728 8.65768 0.63993 8.51735 0.390132 8.26755C0.140335 8.01775 0 7.67895 0 7.32569C0 6.97242 0.140335 6.63362 0.390132 6.38382C0.63993 6.13403 0.978728 5.99369 1.33199 5.99369H13.9859L10.3802 2.27343C10.1305 2.02364 9.99024 1.68491 9.99024 1.33171C9.99024 0.978513 10.1305 0.639776 10.3802 0.38999Z" fill="black"/>
</svg>
