<svg width="25" height="25" viewBox="0 0 25 25" fill="none" xmlns="http://www.w3.org/2000/svg">
<path d="M6.30648 10.322V13.189M8.60015 10.322V13.189M10.8938 10.322V14.3359M13.1875 10.322V13.189M15.4812 10.322V13.189M17.7748 10.322V14.3359M4.0128 9.74854H20.0685C20.3727 9.74854 20.6644 9.86936 20.8794 10.0844C21.0945 10.2995 21.2153 10.5912 21.2153 10.8954V15.4827C21.2153 15.7869 21.0945 16.0786 20.8794 16.2937C20.6644 16.5087 20.3727 16.6296 20.0685 16.6296H4.0128C3.70864 16.6296 3.41694 16.5087 3.20187 16.2937C2.98679 16.0786 2.86597 15.7869 2.86597 15.4827V10.8954C2.86597 10.5912 2.98679 10.2995 3.20187 10.0844C3.41694 9.86936 3.70864 9.74854 4.0128 9.74854Z" stroke="black" stroke-width="1.14684" stroke-linecap="round" stroke-linejoin="round"/>
</svg>
