<svg width="29" height="29" viewBox="0 0 29 29" fill="none" xmlns="http://www.w3.org/2000/svg">
<path fill-rule="evenodd" clip-rule="evenodd" d="M27.9593 26.4223L21.1597 19.624C25.2538 14.7087 24.7577 7.4425 20.0335 3.12926C15.3093 -1.18397 8.02807 -1.01849 3.50467 3.50491C-1.01874 8.02831 -1.18421 15.3095 3.12902 20.0337C7.44225 24.758 14.7084 25.2541 19.6237 21.1599L26.422 27.9596C26.8465 28.3841 27.5348 28.3841 27.9593 27.9596C28.3838 27.5351 28.3838 26.8468 27.9593 26.4223ZM2.20288 11.981C2.20288 6.58081 6.58057 2.20312 11.9807 2.20312C17.3809 2.20312 21.7585 6.58081 21.7585 11.981C21.7585 17.3811 17.3809 21.7588 11.9807 21.7588C6.58305 21.7528 2.20887 17.3786 2.20288 11.981Z" fill="#334155"/>
</svg>
